<mxfile host="app.diagrams.net" modified="2024-02-16T14:12:14.997Z" agent="Mozilla/5.0 (Windows NT 10.0; Win64; x64) AppleWebKit/537.36 (KHTML, like Gecko) Chrome/121.0.0.0 Safari/537.36" etag="G89eYvr9-PQWu4jHcfmN" version="23.1.4" type="device">
  <diagram name="Page-1" id="UNIl0-Ln_QB9fbEVDWuf">
    <mxGraphModel dx="2227" dy="696" grid="1" gridSize="10" guides="1" tooltips="1" connect="1" arrows="1" fold="1" page="1" pageScale="1" pageWidth="827" pageHeight="1169" math="0" shadow="0">
      <root>
        <mxCell id="0" />
        <mxCell id="1" parent="0" />
        <mxCell id="1nNKneh7rekix5eZ6c7V-1" value="Login&lt;br&gt;process" style="ellipse;whiteSpace=wrap;html=1;aspect=fixed;" parent="1" vertex="1">
          <mxGeometry x="320" y="280" width="80" height="80" as="geometry" />
        </mxCell>
        <mxCell id="1nNKneh7rekix5eZ6c7V-2" value="" style="endArrow=classic;html=1;rounded=0;entryX=0.558;entryY=0.033;entryDx=0;entryDy=0;entryPerimeter=0;" parent="1" target="1nNKneh7rekix5eZ6c7V-5" edge="1">
          <mxGeometry width="50" height="50" relative="1" as="geometry">
            <mxPoint x="320" y="330" as="sourcePoint" />
            <mxPoint x="260" y="400" as="targetPoint" />
          </mxGeometry>
        </mxCell>
        <mxCell id="1nNKneh7rekix5eZ6c7V-3" value="" style="endArrow=classic;html=1;rounded=0;exitX=0.5;exitY=1;exitDx=0;exitDy=0;" parent="1" source="1nNKneh7rekix5eZ6c7V-1" edge="1">
          <mxGeometry width="50" height="50" relative="1" as="geometry">
            <mxPoint x="350" y="360" as="sourcePoint" />
            <mxPoint x="360" y="590" as="targetPoint" />
          </mxGeometry>
        </mxCell>
        <mxCell id="1nNKneh7rekix5eZ6c7V-4" value="" style="endArrow=classic;html=1;rounded=0;entryX=0.5;entryY=0;entryDx=0;entryDy=0;entryPerimeter=0;" parent="1" target="1nNKneh7rekix5eZ6c7V-6" edge="1">
          <mxGeometry width="50" height="50" relative="1" as="geometry">
            <mxPoint x="400" y="330" as="sourcePoint" />
            <mxPoint x="456" y="410" as="targetPoint" />
          </mxGeometry>
        </mxCell>
        <mxCell id="1nNKneh7rekix5eZ6c7V-5" value="&lt;font style=&quot;font-size: 14px;&quot;&gt;Attendance master&lt;/font&gt;" style="rounded=0;whiteSpace=wrap;html=1;" parent="1" vertex="1">
          <mxGeometry x="80" y="470" width="120" height="60" as="geometry" />
        </mxCell>
        <mxCell id="1nNKneh7rekix5eZ6c7V-6" value="Policemen" style="rounded=0;whiteSpace=wrap;html=1;" parent="1" vertex="1">
          <mxGeometry x="480" y="460" width="120" height="60" as="geometry" />
        </mxCell>
        <mxCell id="1nNKneh7rekix5eZ6c7V-7" value="Add police officers data" style="ellipse;whiteSpace=wrap;html=1;aspect=fixed;" parent="1" vertex="1">
          <mxGeometry x="-40" y="350" width="80" height="80" as="geometry" />
        </mxCell>
        <mxCell id="1nNKneh7rekix5eZ6c7V-8" value="Add Activities" style="ellipse;whiteSpace=wrap;html=1;aspect=fixed;" parent="1" vertex="1">
          <mxGeometry x="-40" y="460" width="80" height="80" as="geometry" />
        </mxCell>
        <mxCell id="1nNKneh7rekix5eZ6c7V-9" value="Schedule Duty" style="ellipse;whiteSpace=wrap;html=1;aspect=fixed;" parent="1" vertex="1">
          <mxGeometry x="-40" y="570" width="80" height="80" as="geometry" />
        </mxCell>
        <mxCell id="1nNKneh7rekix5eZ6c7V-10" value="Apply for leave" style="ellipse;whiteSpace=wrap;html=1;aspect=fixed;" parent="1" vertex="1">
          <mxGeometry x="646" y="450" width="80" height="80" as="geometry" />
        </mxCell>
        <mxCell id="1nNKneh7rekix5eZ6c7V-12" value="Add Attendance master" style="ellipse;whiteSpace=wrap;html=1;aspect=fixed;" parent="1" vertex="1">
          <mxGeometry x="490" y="680" width="80" height="80" as="geometry" />
        </mxCell>
        <mxCell id="1nNKneh7rekix5eZ6c7V-13" value="&lt;font style=&quot;font-size: 14px;&quot;&gt;Admin&lt;/font&gt;" style="rounded=0;whiteSpace=wrap;html=1;" parent="1" vertex="1">
          <mxGeometry x="300" y="590" width="120" height="60" as="geometry" />
        </mxCell>
        <mxCell id="1nNKneh7rekix5eZ6c7V-14" value="Accept or Reject leave request" style="ellipse;whiteSpace=wrap;html=1;aspect=fixed;" parent="1" vertex="1">
          <mxGeometry x="60" y="730" width="80" height="80" as="geometry" />
        </mxCell>
        <mxCell id="1nNKneh7rekix5eZ6c7V-15" value="" style="endArrow=classic;html=1;rounded=0;entryX=0.979;entryY=0.294;entryDx=0;entryDy=0;entryPerimeter=0;" parent="1" edge="1">
          <mxGeometry width="50" height="50" relative="1" as="geometry">
            <mxPoint x="81.68" y="530" as="sourcePoint" />
            <mxPoint x="19.999999999999943" y="583.5199999999998" as="targetPoint" />
          </mxGeometry>
        </mxCell>
        <mxCell id="1nNKneh7rekix5eZ6c7V-16" value="" style="endArrow=classic;html=1;rounded=0;entryX=0.049;entryY=0.322;entryDx=0;entryDy=0;entryPerimeter=0;" parent="1" target="1nNKneh7rekix5eZ6c7V-12" edge="1">
          <mxGeometry width="50" height="50" relative="1" as="geometry">
            <mxPoint x="420" y="650" as="sourcePoint" />
            <mxPoint x="358" y="704" as="targetPoint" />
          </mxGeometry>
        </mxCell>
        <mxCell id="1nNKneh7rekix5eZ6c7V-17" value="" style="endArrow=classic;html=1;rounded=0;entryX=1;entryY=1;entryDx=0;entryDy=0;" parent="1" target="1nNKneh7rekix5eZ6c7V-7" edge="1">
          <mxGeometry width="50" height="50" relative="1" as="geometry">
            <mxPoint x="80" y="473" as="sourcePoint" />
            <mxPoint x="18.000000000000007" y="527" as="targetPoint" />
          </mxGeometry>
        </mxCell>
        <mxCell id="1nNKneh7rekix5eZ6c7V-18" value="" style="endArrow=classic;html=1;rounded=0;" parent="1" edge="1">
          <mxGeometry width="50" height="50" relative="1" as="geometry">
            <mxPoint x="80" y="499.44" as="sourcePoint" />
            <mxPoint x="40" y="499" as="targetPoint" />
          </mxGeometry>
        </mxCell>
        <mxCell id="1nNKneh7rekix5eZ6c7V-19" value="Apply for leave" style="ellipse;whiteSpace=wrap;html=1;aspect=fixed;" parent="1" vertex="1">
          <mxGeometry x="90" y="600" width="80" height="80" as="geometry" />
        </mxCell>
        <mxCell id="1nNKneh7rekix5eZ6c7V-22" value="" style="endArrow=classic;html=1;rounded=0;" parent="1" edge="1">
          <mxGeometry width="50" height="50" relative="1" as="geometry">
            <mxPoint x="135" y="532" as="sourcePoint" />
            <mxPoint x="133" y="600" as="targetPoint" />
          </mxGeometry>
        </mxCell>
        <mxCell id="1nNKneh7rekix5eZ6c7V-23" value="" style="endArrow=classic;html=1;rounded=0;entryX=-0.023;entryY=0.874;entryDx=0;entryDy=0;entryPerimeter=0;exitX=0.993;exitY=0.419;exitDx=0;exitDy=0;exitPerimeter=0;" parent="1" source="1nNKneh7rekix5eZ6c7V-19" edge="1">
          <mxGeometry width="50" height="50" relative="1" as="geometry">
            <mxPoint x="173" y="630" as="sourcePoint" />
            <mxPoint x="300.0000000000002" y="632.44" as="targetPoint" />
          </mxGeometry>
        </mxCell>
        <mxCell id="1nNKneh7rekix5eZ6c7V-25" value="" style="endArrow=classic;html=1;rounded=0;" parent="1" edge="1">
          <mxGeometry width="50" height="50" relative="1" as="geometry">
            <mxPoint x="600" y="489" as="sourcePoint" />
            <mxPoint x="646" y="489.44" as="targetPoint" />
          </mxGeometry>
        </mxCell>
        <mxCell id="1nNKneh7rekix5eZ6c7V-26" value="" style="endArrow=classic;html=1;rounded=0;entryX=1;entryY=0.5;entryDx=0;entryDy=0;" parent="1" target="1nNKneh7rekix5eZ6c7V-13" edge="1">
          <mxGeometry width="50" height="50" relative="1" as="geometry">
            <mxPoint x="680" y="530" as="sourcePoint" />
            <mxPoint x="480" y="630" as="targetPoint" />
            <Array as="points">
              <mxPoint x="680" y="620" />
            </Array>
          </mxGeometry>
        </mxCell>
        <mxCell id="1nNKneh7rekix5eZ6c7V-27" value="" style="endArrow=classic;html=1;rounded=0;entryX=1;entryY=0;entryDx=0;entryDy=0;" parent="1" target="1nNKneh7rekix5eZ6c7V-14" edge="1">
          <mxGeometry width="50" height="50" relative="1" as="geometry">
            <mxPoint x="300" y="650" as="sourcePoint" />
            <mxPoint x="240" y="690" as="targetPoint" />
          </mxGeometry>
        </mxCell>
        <mxCell id="1nNKneh7rekix5eZ6c7V-28" value="View Duty Report" style="ellipse;whiteSpace=wrap;html=1;aspect=fixed;" parent="1" vertex="1">
          <mxGeometry x="334" y="980" width="80" height="80" as="geometry" />
        </mxCell>
        <mxCell id="1nNKneh7rekix5eZ6c7V-36" value="Arrange&lt;br&gt;Emergency meet" style="ellipse;whiteSpace=wrap;html=1;aspect=fixed;" parent="1" vertex="1">
          <mxGeometry x="110" y="820" width="80" height="80" as="geometry" />
        </mxCell>
        <mxCell id="1nNKneh7rekix5eZ6c7V-37" value="" style="endArrow=classic;html=1;rounded=0;entryX=1;entryY=0;entryDx=0;entryDy=0;exitX=0.25;exitY=1;exitDx=0;exitDy=0;" parent="1" source="1nNKneh7rekix5eZ6c7V-13" target="1nNKneh7rekix5eZ6c7V-36" edge="1">
          <mxGeometry width="50" height="50" relative="1" as="geometry">
            <mxPoint x="310" y="660" as="sourcePoint" />
            <mxPoint x="138" y="752" as="targetPoint" />
          </mxGeometry>
        </mxCell>
        <mxCell id="IQbIITVL5PFvgJ2Ntj0Y-3" value="" style="endArrow=classic;html=1;rounded=0;exitX=0.677;exitY=1;exitDx=0;exitDy=0;exitPerimeter=0;" edge="1" parent="1" source="1nNKneh7rekix5eZ6c7V-6" target="1nNKneh7rekix5eZ6c7V-28">
          <mxGeometry width="50" height="50" relative="1" as="geometry">
            <mxPoint x="600" y="930" as="sourcePoint" />
            <mxPoint x="650" y="880" as="targetPoint" />
            <Array as="points">
              <mxPoint x="630" y="710" />
            </Array>
          </mxGeometry>
        </mxCell>
        <mxCell id="IQbIITVL5PFvgJ2Ntj0Y-4" value="" style="endArrow=classic;html=1;rounded=0;exitX=0.75;exitY=1;exitDx=0;exitDy=0;entryX=0.761;entryY=0.023;entryDx=0;entryDy=0;entryPerimeter=0;" edge="1" parent="1">
          <mxGeometry width="50" height="50" relative="1" as="geometry">
            <mxPoint x="371.56" y="650" as="sourcePoint" />
            <mxPoint x="376.4400000000001" y="981.8400000000001" as="targetPoint" />
          </mxGeometry>
        </mxCell>
        <mxCell id="IQbIITVL5PFvgJ2Ntj0Y-5" value="" style="endArrow=classic;html=1;rounded=0;entryX=0.308;entryY=0.023;entryDx=0;entryDy=0;entryPerimeter=0;exitX=0.75;exitY=1;exitDx=0;exitDy=0;" edge="1" parent="1" source="1nNKneh7rekix5eZ6c7V-5" target="1nNKneh7rekix5eZ6c7V-28">
          <mxGeometry width="50" height="50" relative="1" as="geometry">
            <mxPoint x="260" y="890" as="sourcePoint" />
            <mxPoint x="310" y="840" as="targetPoint" />
          </mxGeometry>
        </mxCell>
      </root>
    </mxGraphModel>
  </diagram>
</mxfile>
